<svg width="1441" height="1025" viewBox="0 0 1441 1025" fill="none" xmlns="http://www.w3.org/2000/svg">
<g opacity="0.3">
<line opacity="0.3" x1="0.081543" y1="40.3538" x2="1440.08" y2="40.3539" stroke="white"/>
<line opacity="0.3" x1="0.081543" y1="103.354" x2="1440.08" y2="103.354" stroke="white"/>
<line opacity="0.3" x1="0.081543" y1="166.354" x2="1440.08" y2="166.354" stroke="white"/>
<line opacity="0.3" x1="0.081543" y1="229.354" x2="1440.08" y2="229.354" stroke="white"/>
<line opacity="0.3" x1="0.081543" y1="292.354" x2="1440.08" y2="292.354" stroke="white"/>
<line opacity="0.3" x1="0.081543" y1="355.354" x2="1440.08" y2="355.354" stroke="white"/>
<line opacity="0.3" x1="0.081543" y1="418.354" x2="1440.08" y2="418.354" stroke="white"/>
<line opacity="0.3" x1="0.081543" y1="481.354" x2="1440.08" y2="481.354" stroke="white"/>
<line opacity="0.3" x1="0.081543" y1="544.354" x2="1440.08" y2="544.354" stroke="white"/>
<line opacity="0.3" x1="0.081543" y1="607.354" x2="1440.08" y2="607.354" stroke="white"/>
<line opacity="0.3" x1="0.081543" y1="670.354" x2="1440.08" y2="670.354" stroke="white"/>
<line opacity="0.3" x1="0.081543" y1="733.354" x2="1440.08" y2="733.354" stroke="white"/>
<line opacity="0.3" x1="0.081543" y1="796.354" x2="1440.08" y2="796.354" stroke="white"/>
<line opacity="0.3" x1="0.081543" y1="859.354" x2="1440.08" y2="859.354" stroke="white"/>
<line opacity="0.3" x1="0.081543" y1="922.354" x2="1440.08" y2="922.354" stroke="white"/>
<line opacity="0.3" x1="0.081543" y1="985.354" x2="1440.08" y2="985.354" stroke="white"/>
</g>
<g opacity="0.3">
<line opacity="0.3" x1="83.5815" y1="0.85376" x2="83.5815" y2="1024.85" stroke="white"/>
<line opacity="0.3" x1="168.582" y1="0.85376" x2="168.581" y2="1024.85" stroke="white"/>
<line opacity="0.3" x1="253.582" y1="0.85376" x2="253.581" y2="1024.85" stroke="white"/>
<line opacity="0.3" x1="338.582" y1="0.85376" x2="338.582" y2="1024.85" stroke="white"/>
<line opacity="0.3" x1="423.582" y1="0.85376" x2="423.582" y2="1024.85" stroke="white"/>
<line opacity="0.3" x1="508.582" y1="0.85376" x2="508.582" y2="1024.85" stroke="white"/>
<line opacity="0.3" x1="593.582" y1="0.85376" x2="593.581" y2="1024.85" stroke="white"/>
<line opacity="0.3" x1="678.582" y1="0.85376" x2="678.582" y2="1024.85" stroke="white"/>
<line opacity="0.3" x1="763.582" y1="0.85376" x2="763.582" y2="1024.85" stroke="white"/>
<line opacity="0.3" x1="848.582" y1="0.85376" x2="848.582" y2="1024.85" stroke="white"/>
<line opacity="0.3" x1="933.582" y1="0.85376" x2="933.582" y2="1024.85" stroke="white"/>
<line opacity="0.3" x1="1018.58" y1="0.85376" x2="1018.58" y2="1024.85" stroke="white"/>
<line opacity="0.3" x1="1103.58" y1="0.85376" x2="1103.58" y2="1024.85" stroke="white"/>
<line opacity="0.3" x1="1188.58" y1="0.85376" x2="1188.58" y2="1024.85" stroke="white"/>
<line opacity="0.3" x1="1273.58" y1="0.85376" x2="1273.58" y2="1024.85" stroke="white"/>
<line opacity="0.3" x1="1358.58" y1="0.85376" x2="1358.58" y2="1024.85" stroke="white"/>
</g>
</svg>
