<svg width="299" height="220" viewBox="0 0 299 220" fill="none" xmlns="http://www.w3.org/2000/svg">
<path fill-rule="evenodd" clip-rule="evenodd" d="M278.018 119.533C278.031 119.295 278.102 119.081 278.233 118.89C281.896 119.085 285.467 118.621 288.943 117.497C293.326 115.615 296.075 112.366 297.191 107.751C297.51 76.3367 297.617 44.9183 297.512 13.4956C283.552 13.4245 269.628 13.4958 255.74 13.7098C253.941 10.3102 251.085 8.81077 247.171 9.21129C246.396 5.54293 244.181 3.22226 240.531 2.24927C237.129 1.57211 234.237 2.46469 231.855 4.92697C228.2 1.36336 224.096 0.756402 219.537 3.10614C218.466 3.8916 217.539 4.81986 216.753 5.89094C212.181 5.17673 208.576 6.71195 205.935 10.4966C205.361 11.4312 204.966 12.4307 204.757 13.4956C187.047 13.4956 169.34 13.4956 151.631 13.4956C151.631 24.0635 151.631 34.6317 151.631 45.1996C151.355 45.2503 151.14 45.179 150.988 44.9854C150.886 33.6951 150.993 22.4132 151.31 11.1392C151.545 10.0957 151.903 9.09598 152.381 8.14021C155.148 3.45128 159.255 0.773582 164.698 0.107113C204.472 -0.0357044 244.243 -0.0357044 284.016 0.107113C286.596 0.419312 289.023 1.20478 291.3 2.46349C295.19 4.85502 297.439 8.31818 298.048 12.853C298.191 44.2714 298.191 75.6896 298.048 107.108C297.231 111.279 295.053 114.528 291.514 116.855C287.296 119.085 282.798 119.978 278.018 119.533Z" fill="#B2C9DF"/>
<path fill-rule="evenodd" clip-rule="evenodd" d="M255.74 13.71C256.106 14.7106 256.32 15.7462 256.383 16.8162C256.209 18.2611 255.851 19.6535 255.311 20.9934C259.135 22.639 260.742 25.5667 260.131 29.7762C259.617 31.4497 258.724 32.8777 257.454 34.0606C260.772 38.1403 260.558 42.032 256.811 45.7353C255.62 46.6884 254.262 47.1526 252.741 47.1277C251.983 52.6352 248.842 55.1703 243.315 54.7324C242.647 54.6298 242.039 54.3798 241.495 53.9826C241.567 54.7763 241.745 55.5618 242.03 56.339C241.816 56.6246 241.602 56.6246 241.387 56.339C240.28 53.153 239.708 49.8682 239.674 46.4851C238.675 46.4874 238.176 45.9877 238.174 44.9856C238.581 43.6337 239.082 42.3126 239.674 41.0226C238.418 38.542 239.132 36.9353 241.816 36.2027C244.031 36.5609 244.924 37.8462 244.494 40.0586C244.127 41.0314 243.45 41.674 242.459 41.9865C242.242 42.1785 242.242 42.3211 242.459 42.415C245.299 41.2976 246.336 39.227 245.565 36.2027C244.5 32.8669 242.538 32.1885 239.674 34.1677C238.864 34.9654 238.436 35.9294 238.388 37.0596C231.623 36.6858 228.303 33.1156 228.427 26.3488C225.882 27.7234 223.278 27.9018 220.608 26.8843C219.822 26.3846 219.18 25.7419 218.681 24.9564C217.226 25.1209 215.763 25.2993 214.289 25.4919C213.242 25.4681 212.241 25.2539 211.29 24.8493C210.39 27.0386 209.926 29.3236 209.898 31.7042C210.519 36.6112 210.982 41.5382 211.29 46.4851C212.762 54.3772 217.438 57.626 225.321 56.2319C229.348 54.7542 232.847 52.4694 235.818 49.377C236.021 49.2735 236.236 49.238 236.46 49.2699C233.545 52.9103 229.833 55.4453 225.321 56.8746C225.038 57.8186 224.824 58.7826 224.679 59.7665C224.546 59.7427 224.439 59.6714 224.357 59.5523C224.25 59.0574 224.216 58.5577 224.25 58.0527C224.259 57.8208 224.329 57.6065 224.464 57.4101C217.918 58.0864 213.527 55.3731 211.29 49.2699C210.283 45.4849 209.855 41.629 210.005 37.7022C209.602 36.2273 209.354 34.7278 209.255 33.2037C205.067 32.2644 202.46 29.6938 201.436 25.4919C200.943 22.0426 201.944 19.1149 204.435 16.7091C204.493 15.6275 204.6 14.5564 204.757 13.4958C204.966 12.431 205.361 11.4314 205.935 10.4968C208.576 6.71216 212.181 5.17693 216.753 5.89115C217.539 4.82007 218.466 3.89181 219.537 3.10634C224.096 0.756609 228.2 1.36357 231.855 4.92718C234.237 2.4649 237.129 1.57232 240.531 2.24948C244.181 3.22247 246.396 5.54314 247.171 9.2115C251.085 8.81098 253.94 10.3104 255.74 13.71Z" fill="#1D1D1C"/>
<path fill-rule="evenodd" clip-rule="evenodd" d="M274.163 5.35522C276.305 5.35522 278.447 5.35522 280.589 5.35522C280.589 7.21177 280.589 9.06829 280.589 10.9248C278.447 10.9248 276.305 10.9248 274.163 10.9248C274.163 9.06829 274.163 7.21177 274.163 5.35522Z" fill="#FEFFFE"/>
<path fill-rule="evenodd" clip-rule="evenodd" d="M287.016 5.35582C289.85 5.1536 291.099 6.4389 290.764 9.21171C289.837 10.6647 288.515 11.2003 286.801 10.8183C284.595 9.90275 284.096 8.40324 285.302 6.31979C285.859 5.93528 286.431 5.61395 287.016 5.35582Z" fill="#FEFEFE"/>
<path fill-rule="evenodd" clip-rule="evenodd" d="M266.665 5.99829C267.837 7.48079 268.908 9.05173 269.878 10.711C267.74 10.9608 265.598 10.9964 263.452 10.8182C264.604 9.26067 265.675 7.65405 266.665 5.99829Z" fill="#FEFEFE"/>
<path fill-rule="evenodd" clip-rule="evenodd" d="M204.757 13.4956C204.6 14.5562 204.493 15.6273 204.435 16.7088C201.944 19.1147 200.944 22.0424 201.436 25.4917C202.46 29.6935 205.067 32.2641 209.255 33.2035C209.354 34.7276 209.602 36.2271 210.005 37.702C209.855 41.6288 210.283 45.4847 211.29 49.2697C213.527 55.3729 217.918 58.0862 224.465 57.4099C224.33 57.6063 224.259 57.8205 224.25 58.0525C219.379 58.9979 214.739 60.6045 210.326 62.8724C204.898 66.119 200.935 70.6531 198.437 76.4751C197.081 80.5429 195.725 84.613 194.367 88.6854C193.395 89.8113 192.394 89.8113 191.368 88.6854C187.763 82.3311 184.051 76.0475 180.229 69.8344C179.304 68.752 178.125 68.1807 176.694 68.1207C176.658 67.1897 176.694 66.2615 176.801 65.3359C177.046 64.8841 177.367 64.4914 177.765 64.1577C178.622 63.7293 179.479 63.3008 180.336 62.8724C180.936 61.9948 181.328 61.0308 181.514 59.9805C181.688 58.1978 181.831 56.4127 181.943 54.6251C182.617 53.2753 183.404 51.99 184.299 50.7692C184.52 49.0964 183.77 48.2395 182.05 48.1986C180.023 48.759 178.631 50.0443 177.873 52.0545C177.528 53.1926 177.206 54.3352 176.909 55.4819C176.547 55.7107 176.191 55.6749 175.838 55.3748C174.788 54.3136 174.038 53.0641 173.588 51.6261C172.003 46.3688 170.289 41.156 168.447 35.9883C168.089 35.2743 167.734 34.5601 167.376 33.8461C166.735 33.1047 165.986 32.9976 165.127 33.5248C164.049 34.366 163.621 35.4727 163.841 36.8451C164.353 40.6728 165.03 44.4571 165.876 48.1986C163.67 43.3582 161.243 38.6454 158.593 34.0603C157.385 32.8802 156.243 32.9516 155.166 34.2746C154.844 35.0327 154.772 35.818 154.951 36.6309C156.987 40.9866 159.022 45.3425 161.057 49.6981C160.986 49.7694 160.913 49.841 160.842 49.9123C157.764 48.3271 154.692 46.7563 151.631 45.1996C151.631 34.6317 151.631 24.0635 151.631 13.4956C169.34 13.4956 187.047 13.4956 204.757 13.4956Z" fill="#FEFEFE"/>
<path fill-rule="evenodd" clip-rule="evenodd" d="M278.233 118.89C278.757 116.903 278.794 114.904 278.34 112.892C273.94 98.9095 269.585 84.9139 265.272 70.9055C263.197 64.6879 259.02 60.6536 252.741 58.8023C249.618 58.0776 246.475 57.435 243.315 56.8744C242.821 56.8238 242.392 56.6454 242.03 56.3388C241.745 55.5616 241.567 54.7761 241.495 53.9824C242.039 54.3796 242.647 54.6296 243.315 54.7322C248.842 55.1701 251.983 52.635 252.741 47.1275C254.262 47.1524 255.62 46.6882 256.811 45.7351C260.558 42.0318 260.772 38.1401 257.454 34.0604C258.724 32.8775 259.617 31.4495 260.131 29.776C260.742 25.5665 259.135 22.6388 255.311 20.9932C255.851 19.6533 256.209 18.2609 256.383 16.816C256.32 15.746 256.106 14.7104 255.74 13.7098C269.627 13.4958 283.552 13.4245 297.512 13.4956C297.617 44.9183 297.51 76.3367 297.191 107.751C296.075 112.366 293.326 115.615 288.943 117.497C285.467 118.621 281.896 119.085 278.233 118.89Z" fill="#FEFEFE"/>
<path fill-rule="evenodd" clip-rule="evenodd" d="M241.388 56.3389C240.899 56.362 240.471 56.5404 240.102 56.8744C237.138 59.3379 233.997 61.5514 230.677 63.5151C226.622 65.4531 224.623 64.2036 224.679 59.7663C224.824 58.7824 225.039 57.8185 225.321 56.8744C229.833 55.4452 233.545 52.9101 236.461 49.2697C236.236 49.2378 236.021 49.2734 235.818 49.3769C232.847 52.4693 229.349 54.7541 225.321 56.2318C217.438 57.6259 212.762 54.3771 211.29 46.4849C210.982 41.538 210.519 36.6111 209.898 31.704C209.926 29.3235 210.391 27.0384 211.29 24.8491C212.241 25.2538 213.242 25.468 214.289 25.4918C215.763 25.2992 217.226 25.1207 218.681 24.9562C219.18 25.7418 219.822 26.3844 220.609 26.8842C223.278 27.9017 225.883 27.7233 228.428 26.3486C228.303 33.1155 231.624 36.6856 238.389 37.0594C238.436 35.9292 238.864 34.9653 239.674 34.1675C242.538 32.1884 244.5 32.8668 245.565 36.2026C246.336 39.2269 245.299 41.2975 242.459 42.4148C242.242 42.321 242.242 42.1783 242.459 41.9864C243.45 41.6739 244.127 41.0312 244.494 40.0585C244.924 37.846 244.031 36.5607 241.816 36.2026C239.132 36.9352 238.419 38.5418 239.674 41.0224C239.083 42.3124 238.581 43.6335 238.174 44.9854C238.176 45.9875 238.676 46.4873 239.674 46.4849C239.708 49.868 240.28 53.1528 241.388 56.3389Z" fill="#FDFDFD"/>
<path fill-rule="evenodd" clip-rule="evenodd" d="M221.894 30.8471C223.483 30.6837 224.696 31.2548 225.536 32.5608C225.351 32.7928 225.137 32.8284 224.893 32.6679C223.965 31.6146 222.824 31.2933 221.466 31.704C221.472 31.34 221.613 31.0542 221.894 30.8471Z" fill="#2A2D2F"/>
<path fill-rule="evenodd" clip-rule="evenodd" d="M212.04 32.3466C213.092 32.2125 214.056 32.4267 214.932 32.9892C215.035 33.1923 215.071 33.4065 215.039 33.6319C214.401 33.3324 213.722 33.1182 213.004 32.9892C212.638 33.0209 212.282 33.0925 211.933 33.2034C211.826 33.1321 211.719 33.0606 211.612 32.9892C211.759 32.7712 211.903 32.5569 212.04 32.3466Z" fill="#2B2F30"/>
<path fill-rule="evenodd" clip-rule="evenodd" d="M176.266 70.6911C174.798 71.416 173.228 71.8802 171.553 72.0835C169.263 72.229 166.98 72.1932 164.698 71.9764C164.769 70.6123 164.698 69.2554 164.484 67.9063C162.837 67.4372 161.517 66.509 160.521 65.1215C159.18 63.0826 158.252 60.8689 157.736 58.4808C154.534 57.5327 151.498 56.2118 148.632 54.5178C147.953 54.1252 147.417 53.5896 147.025 52.9112C146.753 52.1124 147.038 51.7553 147.882 51.8401C150.566 52.4016 153.173 53.2227 155.701 54.3036C156.556 54.4105 157.413 54.4463 158.272 54.4107C158.295 53.8959 158.081 53.5033 157.629 53.2325C154.881 51.465 152.096 49.7513 149.275 48.0913C148.63 47.6273 148.201 47.0205 147.989 46.2705C148.071 45.8671 148.285 45.5458 148.632 45.3065C149.36 45.1896 150.074 45.2609 150.774 45.5207C154.112 47.0468 157.395 48.6892 160.628 50.4477C160.973 50.6019 161.294 50.5664 161.592 50.3406C161.588 49.683 161.446 49.0403 161.164 48.4127C159.236 44.4139 157.308 40.4153 155.38 36.4166C155.035 34.549 155.785 33.7279 157.629 33.9531C157.95 34.2744 158.272 34.5957 158.593 34.9171C160.889 38.9392 162.961 43.0806 164.805 47.3416C165.127 47.8413 165.448 48.3413 165.769 48.8411C165.945 49.0309 166.159 49.1022 166.412 49.0553C166.123 45.72 165.516 42.4354 164.591 39.2014C164.492 38.2721 164.385 37.3439 164.27 36.4166C164.238 34.4818 165.129 33.6965 166.947 34.0602C167.232 34.6315 167.519 35.2026 167.804 35.7739C169.745 41.3118 171.602 46.8814 173.374 52.4828C173.798 53.4742 174.334 54.4024 174.98 55.2676C174.837 55.3389 174.696 55.4105 174.552 55.4818C170.694 54.2323 168.196 55.5176 167.054 59.3377C167.125 59.5519 167.198 59.7661 167.269 59.9803C167.699 57.263 169.272 55.8348 171.981 55.696C173.629 55.9265 175.272 56.1052 176.908 56.2315C177.673 55.3539 178.067 54.3186 178.087 53.1254C178.714 50.8914 180.107 49.3918 182.264 48.6269C183.234 48.8467 183.77 49.4178 183.87 50.3406C182.849 51.7424 181.992 53.2419 181.3 54.8391C181.296 57.1623 181.009 59.4474 180.443 61.6941C180.276 62.0766 180.025 62.398 179.693 62.658C178.149 63.0582 176.971 63.9506 176.159 65.3357C176.169 67.118 176.206 68.9031 176.266 70.6911Z" fill="#FDFDFD"/>
<path fill-rule="evenodd" clip-rule="evenodd" d="M223.607 34.4893C225.002 34.8219 225.216 35.5001 224.25 36.5243C223.072 36.7743 222.607 36.3101 222.858 35.1319C223.104 34.8886 223.353 34.6743 223.607 34.4893Z" fill="#262828"/>
<path fill-rule="evenodd" clip-rule="evenodd" d="M213.111 35.5601C214.332 35.5883 214.688 36.1594 214.182 37.2738C212.833 37.9618 212.297 37.5334 212.576 35.9885C212.788 35.8672 212.968 35.7244 213.111 35.5601Z" fill="#242625"/>
<path fill-rule="evenodd" clip-rule="evenodd" d="M217.824 35.7739C218.038 35.7739 218.252 35.7739 218.466 35.7739C217.972 37.7929 217.543 39.828 217.181 41.8791C217.292 44.1099 218.293 44.7168 220.18 43.6999C220.418 43.9619 220.454 44.2475 220.287 44.5568C218.316 45.3922 217.104 44.7496 216.646 42.6288C216.72 40.2917 217.112 38.0069 217.824 35.7739Z" fill="#2A2E2F"/>
<path fill-rule="evenodd" clip-rule="evenodd" d="M240.959 37.0596C243.785 37.0367 244.571 38.2862 243.315 40.8084C243.245 40.8442 243.172 40.8797 243.101 40.9155C243.022 39.3697 242.236 38.7629 240.745 39.0947C240.415 39.4329 240.164 39.8258 239.995 40.2729C239.365 38.8929 239.687 37.8218 240.959 37.0596Z" fill="#F6F7F7"/>
<path fill-rule="evenodd" clip-rule="evenodd" d="M241.387 39.6301C241.837 39.6858 242.122 39.9356 242.244 40.3799C241.537 41.9741 240.858 43.5807 240.209 45.1997C239.659 45.7908 239.194 45.7194 238.817 44.9855C239.597 43.1338 240.454 41.3488 241.387 39.6301Z" fill="#F2F3F4"/>
<path fill-rule="evenodd" clip-rule="evenodd" d="M220.18 45.628C222.258 45.4254 224.259 45.7109 226.178 46.4849C226.756 46.2553 227.328 46.041 227.892 45.8422C227.928 46.1254 227.857 46.3754 227.678 46.592C223.849 48.5988 219.779 49.3843 215.467 48.9484C215.084 48.9064 214.799 48.7279 214.61 48.4128C215.531 48.391 216.245 47.9983 216.753 47.2346C217.888 46.6301 219.032 46.0946 220.18 45.628Z" fill="#272A2B"/>
<path fill-rule="evenodd" clip-rule="evenodd" d="M220.823 46.2707C222.314 46.1375 223.741 46.3517 225.107 46.9134C222.363 48.049 219.508 48.5132 216.539 48.3058C217.802 47.2326 219.231 46.5542 220.823 46.2707Z" fill="#F7F7F8"/>
<path fill-rule="evenodd" clip-rule="evenodd" d="M225.964 47.9841C226.178 47.9841 226.392 47.9841 226.607 47.9841C226.639 48.2095 226.602 48.4237 226.499 48.6268C223.363 51.5148 219.936 51.9433 216.217 49.9121C216.091 49.7015 216.161 49.5586 216.431 49.4836C219.306 50.9495 222.125 50.8424 224.893 49.1623C225.293 48.7973 225.651 48.4046 225.964 47.9841Z" fill="#2B2F30"/>
<path fill-rule="evenodd" clip-rule="evenodd" d="M151.203 49.9124C151.462 50.0049 151.676 50.1478 151.845 50.3408C151.635 50.9378 151.565 51.5805 151.631 52.2687C151.44 52.1381 151.226 52.0667 150.988 52.0545C150.922 51.2958 150.993 50.5818 151.203 49.9124Z" fill="#A9C1D7"/>
<path fill-rule="evenodd" clip-rule="evenodd" d="M151.845 50.3406C153.833 51.4065 155.761 52.5847 157.629 53.8751C157.13 54.018 156.629 54.018 156.13 53.8751C154.6 53.4013 153.101 52.8658 151.631 52.2685C151.565 51.5802 151.635 50.9376 151.845 50.3406Z" fill="#F6F6F7"/>
<path fill-rule="evenodd" clip-rule="evenodd" d="M176.694 68.1205C176.694 68.3348 176.694 68.549 176.694 68.7632C176.694 68.9061 176.694 69.0487 176.694 69.1916C176.803 69.8103 176.66 70.31 176.266 70.6911C176.206 68.9031 176.169 67.118 176.159 65.3357C176.97 63.9506 178.149 63.0582 179.693 62.658C180.025 62.398 180.276 62.0767 180.443 61.6941C181.008 59.4474 181.296 57.1623 181.3 54.8392C181.992 53.242 182.849 51.7425 183.87 50.3406C183.77 49.4178 183.234 48.8467 182.264 48.6269C180.107 49.3919 178.714 50.8914 178.087 53.1254C178.067 54.3186 177.673 55.3539 176.908 56.2316C175.272 56.1052 173.629 55.9265 171.981 55.696C169.272 55.8348 167.699 57.263 167.269 59.9803C167.198 59.7661 167.125 59.5519 167.054 59.3377C168.196 55.5176 170.694 54.2323 174.552 55.4818C174.696 55.4105 174.837 55.3389 174.98 55.2676C174.333 54.4024 173.798 53.4742 173.374 52.4828C171.602 46.8815 169.745 41.3118 167.804 35.7739C167.519 35.2026 167.232 34.6315 166.947 34.0602C165.129 33.6965 164.237 34.4818 164.27 36.4166C164.385 37.3439 164.492 38.2721 164.591 39.2014C165.516 42.4354 166.123 45.72 166.412 49.0553C166.159 49.1022 165.945 49.0309 165.769 48.8411C165.448 48.3413 165.126 47.8414 164.805 47.3416C162.961 43.0806 160.889 38.9392 158.593 34.9171C158.272 34.5957 157.95 34.2744 157.629 33.9531C155.785 33.728 155.035 34.549 155.38 36.4166C157.308 40.4154 159.236 44.4139 161.163 48.4127C161.446 49.0403 161.588 49.683 161.592 50.3406C161.294 50.5664 160.973 50.602 160.628 50.4477C157.395 48.6892 154.112 47.0468 150.774 45.5208C150.074 45.2609 149.36 45.1896 148.632 45.3065C148.285 45.5458 148.071 45.8671 147.989 46.2705C148.201 47.0205 148.63 47.6274 149.275 48.0914C152.096 49.7513 154.881 51.465 157.629 53.2325C158.081 53.5033 158.295 53.896 158.272 54.4107C157.413 54.4463 156.556 54.4105 155.701 54.3036C153.173 53.2227 150.566 52.4016 147.882 51.8401C147.038 51.7553 146.753 52.1124 147.025 52.9112C147.417 53.5896 147.953 54.1252 148.632 54.5178C151.498 56.2119 154.534 57.5327 157.736 58.4808C158.252 60.8689 159.18 63.0826 160.521 65.1215C161.517 66.509 162.837 67.4372 164.484 67.9063C164.698 69.2555 164.769 70.6123 164.698 71.9764C164.486 72.0133 164.342 71.9417 164.27 71.7622C164.27 71.1909 164.27 70.6198 164.27 70.0485C164.336 69.4305 164.263 68.8592 164.055 68.3348C162.196 67.7272 160.731 66.5848 159.664 64.9073C158.55 63.0344 157.727 61.0349 157.201 58.9093C155.294 58.3131 153.439 57.5991 151.631 56.7671C151.56 56.7671 151.487 56.7671 151.417 56.7671C151.344 56.5876 151.2 56.516 150.988 56.5529C149.33 55.7744 147.867 54.7033 146.597 53.3396C146.108 52.6158 146.216 52.0089 146.918 51.5188C148.341 51.2857 149.697 51.4642 150.988 52.0543C151.226 52.0666 151.44 52.1379 151.631 52.2686C153.1 52.8658 154.6 53.4013 156.129 53.8752C156.629 54.0181 157.13 54.0181 157.629 53.8752C155.761 52.5847 153.833 51.4066 151.845 50.3406C151.676 50.1476 151.462 50.0047 151.202 49.9122C149.936 49.2929 148.829 48.436 147.882 47.3416C147.34 46.3474 147.518 45.5261 148.418 44.8781C149.283 44.7481 150.14 44.7839 150.988 44.9852C151.14 45.1789 151.355 45.2502 151.631 45.1994C154.692 46.7561 157.764 48.327 160.842 49.9122C160.913 49.8409 160.986 49.7693 161.056 49.698C159.021 45.3423 156.986 40.9865 154.951 36.6308C154.771 35.8178 154.844 35.0325 155.165 34.2744C156.243 32.9514 157.385 32.8801 158.593 34.0602C161.243 38.6453 163.67 43.358 165.876 48.1985C165.03 44.457 164.353 40.6726 163.841 36.845C163.621 35.4725 164.049 34.3659 165.126 33.5247C165.986 32.9975 166.735 33.1046 167.376 33.846C167.734 34.56 168.089 35.2742 168.447 35.9882C170.289 41.1559 172.003 46.3686 173.588 51.6259C174.038 53.0639 174.788 54.3135 175.837 55.3747C176.191 55.6748 176.546 55.7106 176.908 55.4818C177.206 54.3351 177.527 53.1925 177.872 52.0543C178.631 50.0441 180.023 48.7589 182.05 48.1985C183.77 48.2394 184.519 49.0962 184.299 50.7691C183.403 51.9899 182.617 53.2752 181.942 54.6249C181.831 56.4126 181.688 58.1976 181.514 59.9803C181.328 61.0306 180.936 61.9946 180.336 62.8723C179.479 63.3007 178.622 63.7291 177.765 64.1576C177.367 64.4913 177.045 64.884 176.801 65.3357C176.694 66.2614 176.658 67.1896 176.694 68.1205Z" fill="#2A2E30"/>
<path fill-rule="evenodd" clip-rule="evenodd" d="M150.988 56.5531C151.2 56.5163 151.344 56.5878 151.417 56.7673C151.203 73.3686 151.132 90.0061 151.203 106.68C150.988 90.0068 150.918 73.2979 150.988 56.5531Z" fill="#9AB6D0"/>
<path fill-rule="evenodd" clip-rule="evenodd" d="M151.417 56.7671C151.488 56.7671 151.56 56.7671 151.631 56.7671C151.595 73.3333 151.631 89.8992 151.738 106.465C151.815 107.113 151.922 107.756 152.059 108.393C152.113 108.653 152.254 108.796 152.488 108.822C152.287 109.137 152.002 109.352 151.631 109.464C151.329 108.564 151.185 107.635 151.203 106.679C151.132 90.0059 151.203 73.3684 151.417 56.7671Z" fill="#AFC6DC"/>
<path fill-rule="evenodd" clip-rule="evenodd" d="M151.631 56.7671C153.439 57.5991 155.294 58.3131 157.201 58.9092C157.728 61.0349 158.55 63.0344 159.664 64.9073C160.731 66.5848 162.196 67.7272 164.056 68.3348C164.118 68.7178 164.045 69.0749 163.841 69.4058C161.605 69.8568 160.461 71.2134 160.414 73.4759C161.946 82.6377 163.589 91.7777 165.341 100.896C164.964 100.485 164.499 100.199 163.949 100.039C163.486 100.198 163.057 100.412 162.663 100.681C162.16 100.038 161.517 99.6092 160.735 99.3961C159.932 99.5839 159.217 99.941 158.593 100.467C158.118 100.067 157.582 99.8888 156.987 99.9316C156.327 100.429 155.791 101.036 155.38 101.752C154.652 103.649 154.009 105.577 153.452 107.536C153.161 108.004 152.839 108.433 152.488 108.822C152.254 108.796 152.113 108.653 152.06 108.393C151.922 107.756 151.815 107.113 151.738 106.465C151.631 89.8992 151.595 73.3333 151.631 56.7671Z" fill="#FEFEFE"/>
<path fill-rule="evenodd" clip-rule="evenodd" d="M216.967 118.676C219.615 115.348 222.149 111.92 224.572 108.394C226.223 106.443 228.258 105.05 230.677 104.216C242.334 101.107 254.153 100.072 266.129 101.11C266.232 100.907 266.269 100.693 266.237 100.468C260.89 100.084 255.534 99.9414 250.17 100.039C248.707 94.902 247.244 89.7608 245.779 84.6156C244.618 77.4588 246.867 71.6392 252.527 67.1569C253.788 66.2759 255.144 65.5619 256.597 65.0148C256.777 64.7982 256.847 64.5482 256.811 64.265C253.949 65.0887 251.486 66.5882 249.421 68.7636C245.458 73.3324 243.958 78.6164 244.922 84.6156C246.342 89.8328 247.878 95.0095 249.528 100.146C243.446 100.649 237.448 101.648 231.534 103.145C228.736 103.936 226.309 105.328 224.25 107.322C218.314 107.004 212.815 108.396 207.756 111.5C205.566 113.011 203.353 114.475 201.115 115.891C199.905 111.123 198.726 106.339 197.58 101.539C196.687 96.5065 197.544 91.7937 200.151 87.4004C205.061 80.7927 210.024 74.2233 215.039 67.6925C214.925 67.3495 214.711 67.2424 214.396 67.3712C209.647 73.5477 204.9 79.7244 200.151 85.9008C196.957 90.6552 195.815 95.8677 196.723 101.539C197.97 106.526 199.148 111.524 200.258 116.534C198.973 117.391 197.687 118.247 196.402 119.104C191.332 119.14 186.261 119.104 181.193 118.997C173.725 117.67 168.976 113.35 166.947 106.037C165.047 95.607 163.119 85.1817 161.164 74.7616C160.545 72.0668 161.581 70.4957 164.27 70.0489C164.27 70.6202 164.27 71.1913 164.27 71.7626C163.606 71.7215 162.963 71.5788 162.342 71.3342C162.143 71.5889 162.072 71.8744 162.128 72.191C166.902 73.481 171.615 73.3024 176.266 71.6555C176.838 71.3699 177.408 71.0842 177.98 70.7986C178.16 70.582 178.23 70.3321 178.194 70.0489C177.748 70.0429 177.354 70.1857 177.016 70.4773C176.975 70.0043 176.868 69.5759 176.694 69.192C176.694 69.0491 176.694 68.9065 176.694 68.7636C177.935 68.8302 178.969 69.33 179.8 70.2631C184.192 77.5117 188.405 84.8664 192.439 92.3273C194.335 96.8436 195.263 101.556 195.224 106.466C195.438 106.751 195.652 106.751 195.867 106.466C196.152 100.788 194.973 95.4328 192.332 90.3994C193.559 90.3396 194.453 89.7683 195.01 88.6857C196.366 84.6156 197.724 80.5454 199.08 76.4753C202.49 68.9227 208.096 63.746 215.896 60.9447C218.454 60.1984 221.024 59.5199 223.608 58.9096C223.899 65.0525 226.684 66.5878 231.962 63.5153C235.122 61.4622 238.191 59.2843 241.173 56.9817C244.738 57.7447 248.309 58.4945 251.884 59.231C259.09 61.1535 263.552 65.7592 265.273 73.0479C269.585 86.8021 273.798 100.583 277.911 114.392C278.136 121.193 274.957 125.442 268.379 127.137C258.981 128.836 249.626 128.622 240.316 126.495C232.637 124.197 224.996 121.769 217.395 119.211C217.125 119.122 216.984 118.944 216.967 118.676Z" fill="#FEFEFE"/>
<path fill-rule="evenodd" clip-rule="evenodd" d="M216.967 118.676C217.19 117.777 217.477 116.92 217.824 116.105C219.899 113.457 221.898 110.744 223.822 107.965C223.965 107.751 224.107 107.537 224.25 107.322C226.309 105.328 228.736 103.936 231.533 103.145C237.448 101.648 243.446 100.648 249.528 100.146C247.878 95.0094 246.342 89.8326 244.922 84.6154C243.958 78.6163 245.458 73.3322 249.421 68.7634C251.486 66.5881 253.949 65.0886 256.811 64.2649C256.847 64.5481 256.777 64.7981 256.597 65.0146C255.144 65.5618 253.788 66.2757 252.527 67.1568C246.867 71.6391 244.618 77.4587 245.779 84.6154C247.244 89.7607 248.707 94.9018 250.17 100.039C255.534 99.9413 260.89 100.084 266.236 100.467C266.269 100.693 266.232 100.907 266.129 101.11C254.153 100.072 242.334 101.107 230.677 104.216C228.258 105.05 226.223 106.443 224.571 108.393C222.149 111.92 219.615 115.348 216.967 118.676Z" fill="#2377AF"/>
<path fill-rule="evenodd" clip-rule="evenodd" d="M201.115 115.891C200.914 116.206 200.629 116.421 200.258 116.533C199.148 111.524 197.97 106.525 196.724 101.538C195.815 95.8673 196.957 90.6548 200.151 85.9005C204.9 79.724 209.647 73.5473 214.396 67.3708C214.711 67.2421 214.925 67.3492 215.039 67.6921C210.024 74.2229 205.061 80.7923 200.151 87.4C197.544 91.7934 196.687 96.5061 197.58 101.538C198.726 106.339 199.905 111.123 201.115 115.891Z" fill="#2178B0"/>
<path fill-rule="evenodd" clip-rule="evenodd" d="M241.388 56.3389C241.602 56.6244 241.816 56.6244 242.03 56.3389C242.392 56.6454 242.821 56.8239 243.316 56.8744C246.475 57.435 249.618 58.0777 252.741 58.8024C259.02 60.6536 263.197 64.6879 265.273 70.9056C269.585 84.914 273.94 98.9096 278.34 112.892C278.794 114.904 278.758 116.904 278.233 118.89C278.102 119.081 278.031 119.295 278.019 119.533C276.033 124.566 272.32 127.387 266.879 127.994C257.97 129.236 249.116 128.95 240.316 127.137C232.639 124.84 225 122.412 217.395 119.854C216.982 119.764 216.768 119.514 216.753 119.104C216.716 118.892 216.787 118.749 216.967 118.676C216.984 118.943 217.125 119.122 217.395 119.211C224.996 121.769 232.637 124.196 240.316 126.495C249.626 128.622 258.981 128.836 268.379 127.137C274.957 125.442 278.136 121.193 277.911 114.391C273.798 100.583 269.585 86.8019 265.273 73.0477C263.552 65.759 259.09 61.1534 251.884 59.2308C248.309 58.4943 244.738 57.7446 241.173 56.9815C238.191 59.2841 235.122 61.4621 231.962 63.5151C226.684 66.5876 223.899 65.0523 223.608 58.9095C221.024 59.5198 218.454 60.1982 215.896 60.9445C208.096 63.7458 202.49 68.9226 199.08 76.4752C197.724 80.5453 196.366 84.6154 195.01 88.6855C194.453 89.7681 193.56 90.3394 192.332 90.3992C194.973 95.4326 196.152 100.788 195.867 106.465C195.652 106.751 195.438 106.751 195.224 106.465C195.263 101.556 194.335 96.8435 192.439 92.3272C188.406 84.8662 184.192 77.5115 179.8 70.2629C178.969 69.3298 177.935 68.83 176.694 68.7634C176.694 68.5492 176.694 68.335 176.694 68.1207C178.125 68.1807 179.303 68.752 180.229 69.8345C184.051 76.0476 187.763 82.3312 191.368 88.6855C192.394 89.8114 193.395 89.8114 194.367 88.6855C195.725 84.613 197.081 80.5429 198.437 76.4752C200.935 70.6532 204.898 66.1191 210.326 62.8725C214.739 60.6045 219.379 58.9979 224.25 58.0526C224.216 58.5575 224.25 59.0573 224.357 59.5521C224.439 59.6712 224.546 59.7425 224.679 59.7663C224.623 64.2036 226.622 65.4531 230.677 63.5151C233.997 61.5514 237.138 59.3379 240.102 56.8744C240.471 56.5404 240.899 56.362 241.388 56.3389Z" fill="#2479B0"/>
<path fill-rule="evenodd" clip-rule="evenodd" d="M164.055 68.335C164.263 68.8594 164.336 69.4307 164.27 70.0487C161.581 70.4955 160.544 72.0666 161.164 74.7614C163.119 85.1815 165.047 95.6068 166.947 106.037C168.976 113.35 173.725 117.67 181.193 118.997C186.261 119.104 191.332 119.14 196.402 119.104C196.331 119.247 196.259 119.39 196.188 119.533C190.766 119.81 185.34 119.81 179.907 119.533C179.601 119.31 179.243 119.168 178.836 119.104C178.365 119.082 177.937 118.939 177.551 118.676C172.018 116.605 168.34 112.749 166.519 107.108C166.17 105.879 165.919 104.63 165.769 103.359C165.731 103.065 165.587 102.886 165.341 102.824C165.604 102.174 165.604 101.531 165.341 100.896C163.588 91.7779 161.945 82.6379 160.414 73.4761C160.461 71.2136 161.605 69.857 163.841 69.406C164.045 69.0751 164.118 68.718 164.055 68.335Z" fill="#2679B0"/>
<path fill-rule="evenodd" clip-rule="evenodd" d="M176.694 69.1919C176.868 69.5758 176.975 70.0042 177.016 70.4772C177.354 70.1856 177.748 70.0428 178.194 70.0488C178.23 70.332 178.16 70.5819 177.98 70.7985C177.408 71.0841 176.838 71.3698 176.266 71.6554C171.615 73.3023 166.903 73.4809 162.128 72.1909C162.072 71.8743 162.143 71.5888 162.342 71.3341C162.963 71.5787 163.606 71.7214 164.27 71.7625C164.343 71.942 164.486 72.0135 164.698 71.9767C166.98 72.1935 169.263 72.2293 171.553 72.0838C173.228 71.8805 174.799 71.4163 176.266 70.6914C176.66 70.3103 176.804 69.8106 176.694 69.1919Z" fill="#2679B0"/>
<path fill-rule="evenodd" clip-rule="evenodd" d="M74.0847 135.599C74.0134 135.599 73.9419 135.599 73.8705 135.599C73.8705 135.027 73.8705 134.456 73.8705 133.885C67.892 134.8 62.5366 133.408 57.8043 129.708C56.9704 128.982 56.2562 128.16 55.6622 127.244C55.8475 127.012 56.0617 126.977 56.3048 127.137C60.4145 131.689 65.5557 133.76 71.7284 133.349C77.7973 133.42 81.189 130.457 81.9036 124.459C82.0424 122.382 81.9709 120.312 81.6894 118.247C81.1914 115.971 80.7629 113.686 80.4041 111.392C80.1899 111.035 79.9757 110.678 79.7615 110.321C78.6244 106.981 77.4462 103.661 76.2269 100.36C75.6085 100.677 74.9658 101.034 74.299 101.431C72.8601 101.898 71.4677 101.791 70.1217 101.11C69.3268 103.762 67.5773 105.368 64.8735 105.93C63.3675 106.027 61.868 106.027 60.3749 105.93C62.1838 112.413 59.8274 116.59 53.3058 118.461C53.1132 117.161 52.3992 116.268 51.1636 115.784C47.9564 114.854 46.314 116.068 46.2367 119.425C46.3335 120.419 46.5477 121.383 46.8793 122.317C46.9399 122.486 47.047 122.629 47.2006 122.746C47.3067 122.323 47.3424 121.895 47.3077 121.46C47.8593 119.683 49.0731 119.005 50.9494 119.425C52.9652 120.464 53.3936 121.963 52.2347 123.924C52.5181 124.495 52.9465 124.602 53.52 124.245C54.5973 127.28 55.1686 130.422 55.2337 133.671C55.0195 133.671 54.8053 133.671 54.5911 133.671C54.5911 133.171 54.5911 132.671 54.5911 132.171C53.8735 132.136 53.1595 132.172 52.4489 132.278C49.3109 134.404 47.2043 133.654 46.1296 130.029C45.9248 130.26 45.7463 130.51 45.594 130.779C43.6779 131.873 42.357 131.409 41.631 129.386C41.4948 127.722 41.5661 126.08 41.8452 124.459C41.0241 125.852 39.9173 126.959 38.5249 127.78C36.4821 128.022 35.5539 127.094 35.7401 124.995C35.893 123.543 36.2144 122.15 36.704 120.818C36.2105 121.154 35.675 121.404 35.0974 121.567C33.2682 121.882 32.34 121.097 32.3126 119.211C33.5701 115.804 35.3553 112.698 37.668 109.893C35.7731 108.459 35.1662 106.602 35.8472 104.323C37.5324 100.817 40.0672 98.1036 43.4519 96.1829C42.3848 95.9886 41.4922 95.4888 40.7742 94.6834C40.0043 93.0209 40.5398 92.0569 42.3808 91.7915C44.4253 91.3112 46.4961 91.0254 48.593 90.9346C47.1886 89.9552 46.8315 88.7055 47.522 87.1858C48.7704 86.1668 50.1984 85.8455 51.8063 86.2219C54.8147 86.2623 57.5995 87.0479 60.1607 88.5782C63.2925 88.3115 66.4344 88.2402 69.5862 88.364C70.6354 88.5221 71.421 89.0576 71.9426 89.9706C73.0863 90.1427 74.2289 90.3213 75.37 90.5062C76.1804 90.7328 76.8946 91.1255 77.5122 91.6844C78.4978 93.0541 78.2836 94.1965 76.8695 95.1118C78.0786 95.3185 79.2925 95.497 80.5112 95.6474C81.059 95.7941 81.4518 96.1154 81.6894 96.6113C81.8644 97.3534 81.7929 98.0676 81.4752 98.7535C80.6511 99.4778 79.7585 100.085 78.7975 100.574C78.9046 100.896 79.0117 101.217 79.1188 101.538C81.5285 104.143 82.6712 107.214 82.5463 110.75C82.2727 111.228 81.8798 111.585 81.3681 111.821C82.5017 112.847 83.6086 113.918 84.6884 115.034C85.2964 115.821 85.7961 116.677 86.1879 117.604C86.4994 120.256 85.3212 121.613 82.6534 121.675C82.7151 123.188 82.608 124.687 82.3321 126.173C81.3578 130.397 78.7516 132.896 74.5132 133.671C74.6321 134.423 74.4892 135.066 74.0847 135.599Z" fill="#1D1D1C"/>
<path fill-rule="evenodd" clip-rule="evenodd" d="M214.396 92.9699C214.611 92.9514 214.788 93.023 214.932 93.1841C216.948 98.5675 220.84 101.067 226.607 100.682C226.643 100.965 226.572 101.215 226.392 101.431C220.354 101.708 216.284 99.0305 214.182 93.3983C214.259 93.252 214.332 93.1091 214.396 92.9699Z" fill="#2078B0"/>
<path fill-rule="evenodd" clip-rule="evenodd" d="M146.061 129.601C143.568 129.073 141.068 128.573 138.564 128.101C138.625 127.691 138.553 127.334 138.35 127.03C136.928 123.528 136.321 119.886 136.529 116.105C137.14 114.6 138.068 113.315 139.313 112.249C140.039 111.369 140.539 110.369 140.813 109.25C140.691 106.717 141.12 104.29 142.098 101.967C142.918 100.898 143.703 100.97 144.455 102.181C144.943 103.351 145.087 104.565 144.883 105.823C144.487 107.837 144.022 109.837 143.491 111.821C143.716 112.575 144.215 112.897 144.99 112.785C147.724 111.805 150.294 110.698 152.702 109.464C151.695 111.977 150.517 114.405 149.167 116.748C146.957 116.706 144.851 117.17 142.848 118.14C141.979 118.695 141.694 119.444 141.991 120.389C142.072 119.476 142.5 118.798 143.276 118.354C145.198 117.59 147.197 117.197 149.275 117.176C151.884 112.813 153.848 108.172 155.165 103.252C155.566 102.271 156.102 101.378 156.772 100.574C157.757 100.341 158.364 100.734 158.593 101.753C157.976 106.388 156.62 110.815 154.523 115.034C154.298 115.375 154.049 115.696 153.773 115.998C153.88 116.105 153.987 116.212 154.094 116.319C155.95 113.33 157.305 110.117 158.165 106.68C158.537 105.298 158.859 103.906 159.128 102.502C159.113 101.961 158.972 101.461 158.7 101.003C160.551 99.1683 161.693 99.5254 162.128 102.074C161.301 106.804 159.73 111.267 157.415 115.462C157.522 115.681 157.665 115.717 157.843 115.569C160.272 111.029 161.915 106.209 162.77 101.11C163.184 100.921 163.576 100.707 163.948 100.467C164.475 100.551 164.833 100.837 165.019 101.324C165.137 102.052 165.064 102.766 164.805 103.466C162.873 108.907 160.731 114.262 158.379 119.532C154.471 122.219 150.508 124.825 146.49 127.351C145.791 127.975 145.648 128.725 146.061 129.601Z" fill="#FCFCFC"/>
<path fill-rule="evenodd" clip-rule="evenodd" d="M73.8706 135.598C67.6266 134.967 61.4143 134.324 55.2338 133.67C55.1686 130.422 54.5973 127.28 53.52 124.245C52.9466 124.602 52.5182 124.495 52.2347 123.924C53.3937 121.963 52.9652 120.464 50.9494 119.425C49.0731 119.005 47.8594 119.683 47.3078 121.46C47.1649 121.746 47.0222 122.031 46.8793 122.317C46.5477 121.383 46.3335 120.419 46.2367 119.425C46.314 116.068 47.9564 114.854 51.1637 115.783C52.3993 116.268 53.1132 117.161 53.3058 118.461C59.8274 116.59 62.1838 112.413 60.375 105.929C61.868 106.027 63.3675 106.027 64.8735 105.929C67.5773 105.368 69.3268 103.761 70.1218 101.11C71.4677 101.791 72.8601 101.898 74.299 101.431C74.9658 101.034 75.6085 100.677 76.2269 100.36C77.4463 103.661 78.6244 106.981 79.7615 110.321C79.9757 110.678 80.1899 111.035 80.4041 111.392C80.763 113.686 81.1914 115.97 81.6894 118.247C81.9709 120.312 82.0425 122.382 81.9037 124.459C81.189 130.456 77.7974 133.42 71.7284 133.349C65.5558 133.759 60.4146 131.689 56.3048 127.137C56.0617 126.976 55.8475 127.012 55.6622 127.244C56.2562 128.16 56.9704 128.981 57.8044 129.707C62.5366 133.408 67.892 134.8 73.8706 133.885C73.8706 134.456 73.8706 135.027 73.8706 135.598Z" fill="#FDFDFD"/>
<path fill-rule="evenodd" clip-rule="evenodd" d="M165.341 100.896C165.604 101.531 165.604 102.174 165.341 102.824C164.942 104.339 164.48 105.839 163.949 107.322C162.605 110.604 161.284 113.888 159.986 117.176C159.735 117.394 159.591 117.679 159.557 118.033C159.142 118.664 158.786 119.343 158.486 120.068C154.487 122.639 150.489 125.21 146.49 127.78C146.361 128.412 146.291 129.019 146.276 129.601C146.205 129.601 146.132 129.601 146.061 129.601C145.648 128.725 145.792 127.975 146.49 127.352C150.509 124.825 154.472 122.219 158.379 119.533C160.731 114.263 162.873 108.907 164.805 103.467C165.065 102.767 165.137 102.053 165.02 101.324C164.833 100.837 164.475 100.551 163.949 100.468C163.576 100.707 163.184 100.922 162.77 101.11C161.916 106.209 160.273 111.029 157.843 115.57C157.666 115.717 157.522 115.681 157.415 115.463C159.731 111.267 161.301 106.804 162.128 102.074C161.693 99.5257 160.551 99.1686 158.7 101.003C158.972 101.462 159.114 101.962 159.129 102.503C158.859 103.906 158.537 105.298 158.165 106.68C157.306 110.117 155.95 113.331 154.095 116.32C153.987 116.212 153.88 116.105 153.773 115.998C154.05 115.696 154.298 115.375 154.523 115.034C156.62 110.816 157.976 106.388 158.593 101.753C158.364 100.734 157.758 100.341 156.772 100.575C156.102 101.378 155.566 102.271 155.166 103.252C153.848 108.172 151.884 112.813 149.275 117.176C147.197 117.198 145.198 117.59 143.277 118.355C142.5 118.798 142.072 119.477 141.991 120.39C141.694 119.445 141.98 118.695 142.848 118.14C144.851 117.17 146.957 116.706 149.168 116.748C150.517 114.406 151.695 111.978 152.702 109.465C150.294 110.698 147.724 111.805 144.99 112.785C144.215 112.897 143.716 112.576 143.491 111.821C144.022 109.837 144.487 107.838 144.883 105.823C145.087 104.565 144.943 103.351 144.455 102.181C143.703 100.97 142.918 100.899 142.098 101.967C141.12 104.29 140.692 106.718 140.813 109.25C140.539 110.37 140.039 111.369 139.314 112.249C138.068 113.315 137.14 114.6 136.529 116.105C136.321 119.887 136.928 123.528 138.35 127.03C138.407 127.373 138.336 127.658 138.135 127.887C136.672 124.109 135.994 120.182 136.1 116.105C136.344 115.332 136.702 114.617 137.172 113.963C138.181 112.883 139.109 111.74 139.956 110.536C140.322 108.183 140.679 105.827 141.027 103.467C142.306 99.8253 143.733 99.7538 145.312 103.252C145.389 106.121 144.924 108.906 143.919 111.607C144.022 112.248 144.38 112.498 144.99 112.357C147.28 111.496 149.493 110.532 151.631 109.465C152.002 109.352 152.287 109.138 152.488 108.822C152.839 108.433 153.161 108.005 153.452 107.537C154.009 105.577 154.652 103.649 155.38 101.753C155.791 101.037 156.327 100.43 156.986 99.932C157.582 99.8892 158.118 100.068 158.593 100.468C159.216 99.9414 159.932 99.5844 160.735 99.3965C161.517 99.6096 162.16 100.038 162.663 100.682C163.057 100.413 163.486 100.199 163.949 100.039C164.499 100.2 164.964 100.485 165.341 100.896Z" fill="#292E31"/>
<path fill-rule="evenodd" clip-rule="evenodd" d="M165.341 102.823C165.587 102.886 165.731 103.064 165.769 103.359C165.919 104.63 166.17 105.879 166.519 107.108C168.34 112.749 172.018 116.605 177.551 118.675C173.875 118.924 170.161 118.96 166.412 118.783C164.111 118.773 161.969 118.238 159.985 117.176C161.284 113.888 162.605 110.603 163.948 107.322C164.48 105.838 164.942 104.339 165.341 102.823Z" fill="#FDFDFD"/>
<path fill-rule="evenodd" clip-rule="evenodd" d="M224.25 107.322C224.107 107.536 223.965 107.751 223.822 107.965C218.486 107.871 213.488 109.12 208.827 111.714C205.329 114.07 201.828 116.426 198.33 118.783C204.258 118.961 210.185 118.926 216.11 118.676C217.035 116.831 217.177 114.939 216.539 112.999C216.562 112.725 216.706 112.546 216.967 112.463C217.438 112.839 217.689 113.339 217.717 113.963C217.824 114.673 217.86 115.387 217.824 116.105C217.477 116.92 217.19 117.777 216.967 118.676C216.787 118.749 216.716 118.891 216.753 119.104C209.945 119.528 203.09 119.671 196.188 119.532C196.259 119.39 196.332 119.247 196.402 119.104C197.688 118.247 198.973 117.39 200.258 116.533C200.629 116.421 200.914 116.207 201.115 115.891C203.354 114.475 205.566 113.011 207.756 111.499C212.815 108.396 218.314 107.003 224.25 107.322Z" fill="#232525"/>
<path fill-rule="evenodd" clip-rule="evenodd" d="M223.822 107.965C221.898 110.744 219.899 113.457 217.824 116.105C217.86 115.388 217.824 114.674 217.717 113.963C217.689 113.339 217.438 112.839 216.967 112.463C216.706 112.546 216.562 112.725 216.538 112.999C217.177 114.939 217.035 116.832 216.11 118.676C210.185 118.926 204.257 118.961 198.33 118.783C201.828 116.426 205.329 114.07 208.827 111.714C213.488 109.12 218.486 107.871 223.822 107.965Z" fill="#FCFCFC"/>
<path fill-rule="evenodd" clip-rule="evenodd" d="M76.6554 111.178C78.2614 111.029 78.6898 111.636 77.9407 112.999C76.3743 113.186 75.9459 112.579 76.6554 111.178Z" fill="#242627"/>
<path fill-rule="evenodd" clip-rule="evenodd" d="M72.3711 112.249C72.5844 112.231 72.7629 112.302 72.9066 112.463C73.822 114.222 74.6788 116.007 75.4772 117.819C76.0864 119.888 75.3725 121.173 73.335 121.674C72.8274 121.653 72.4347 121.439 72.1569 121.032C74.4136 121.308 75.306 120.309 74.8346 118.033C74.1075 116.364 73.322 114.722 72.4782 113.106C72.3732 112.829 72.3374 112.543 72.3711 112.249Z" fill="#292C2E"/>
<path fill-rule="evenodd" clip-rule="evenodd" d="M66.3728 112.678C67.8959 112.55 68.3243 113.157 67.6581 114.499C65.9977 114.732 65.5693 114.125 66.3728 112.678Z" fill="#232525"/>
<path fill-rule="evenodd" clip-rule="evenodd" d="M159.985 117.176C161.969 118.238 164.111 118.774 166.412 118.783C170.161 118.96 173.875 118.925 177.551 118.676C177.937 118.939 178.365 119.082 178.836 119.104C174.16 119.318 169.447 119.389 164.698 119.318C162.912 119.157 161.198 118.729 159.557 118.033C159.591 117.679 159.735 117.393 159.985 117.176Z" fill="#B1C8DE"/>
<path fill-rule="evenodd" clip-rule="evenodd" d="M178.836 119.104C179.243 119.167 179.601 119.31 179.907 119.532C174.801 119.603 169.73 119.532 164.698 119.318C169.447 119.389 174.16 119.318 178.836 119.104Z" fill="#8BAAC7"/>
<path fill-rule="evenodd" clip-rule="evenodd" d="M49.0215 119.961C51.4426 119.643 52.4065 120.642 51.9134 122.96C51.1275 121.746 50.199 121.603 49.1286 122.532C48.7741 123.013 48.7027 123.513 48.9144 124.031C47.5993 122.628 47.6349 121.271 49.0215 119.961Z" fill="#F4F5F6"/>
<path fill-rule="evenodd" clip-rule="evenodd" d="M47.3078 121.46C47.3425 121.894 47.3068 122.323 47.2007 122.746C47.0471 122.629 46.94 122.486 46.8794 122.317C47.0223 122.032 47.1649 121.746 47.3078 121.46Z" fill="#77838C"/>
<path fill-rule="evenodd" clip-rule="evenodd" d="M50.0926 122.531C50.4176 122.534 50.6676 122.677 50.8424 122.96C51.8303 124.718 52.5088 126.575 52.8774 128.53C52.1634 128.631 51.6992 128.345 51.485 127.673C50.9077 126.197 50.3006 124.733 49.6642 123.281C49.7666 123.002 49.9095 122.752 50.0926 122.531Z" fill="#F5F6F7"/>
<path fill-rule="evenodd" clip-rule="evenodd" d="M71.0858 122.745C72.3017 122.71 73.5157 122.746 74.7275 122.853C76.1661 123.225 77.5941 123.618 79.0118 124.031C74.7697 126.106 70.3427 126.499 65.7304 125.209C65.5511 124.992 65.4798 124.742 65.5162 124.459C66.2229 124.647 66.9369 124.683 67.6583 124.566C68.7279 123.782 69.8706 123.175 71.0858 122.745Z" fill="#2D3132"/>
<path fill-rule="evenodd" clip-rule="evenodd" d="M71.5143 123.388C73.295 123.228 75.0088 123.478 76.6554 124.138C75.6473 124.612 74.5763 124.897 73.4422 124.995C71.7285 125.138 70.0148 125.138 68.301 124.995C69.2779 124.221 70.3489 123.685 71.5143 123.388Z" fill="#FBFBFB"/>
<path fill-rule="evenodd" clip-rule="evenodd" d="M77.298 125.316C77.6675 125.389 77.7746 125.604 77.6193 125.959C74.287 128.786 70.8238 129 67.2299 126.601C67.2958 126.428 67.4029 126.285 67.5512 126.173C70.4238 127.835 73.3157 127.871 76.2269 126.28C76.5997 125.955 76.9565 125.634 77.298 125.316Z" fill="#2E3233"/>
<path fill-rule="evenodd" clip-rule="evenodd" d="M138.135 127.887C138.335 127.658 138.407 127.373 138.35 127.03C138.553 127.334 138.625 127.691 138.564 128.101C141.068 128.573 143.568 129.073 146.061 129.601C146.132 129.601 146.205 129.601 146.276 129.601C147.861 130.116 149.502 130.473 151.203 130.672C150.151 141.305 149.15 151.945 148.204 162.59C147.989 162.59 147.775 162.59 147.561 162.59C148.184 155.01 148.9 147.442 149.703 139.883C149.911 139.359 149.984 138.787 149.917 138.169C149.997 135.897 150.211 133.648 150.56 131.421C145.005 130.104 139.435 128.854 133.851 127.673C130.389 139.307 126.962 150.946 123.569 162.59C123.114 162.627 122.686 162.556 122.283 162.376C115.007 158.309 107.795 154.132 100.648 149.844C93.6944 146.028 86.3753 143.137 78.6905 141.168C78.5251 141.199 78.3822 141.271 78.262 141.383C77.3311 144.17 75.5102 146.134 72.7995 147.273C71.7357 147.565 70.6646 147.815 69.5863 148.023C69.5863 147.738 69.5863 147.452 69.5863 147.166C73.7637 146.864 76.4772 144.722 77.7265 140.74C77.3253 139.643 76.8611 138.572 76.3341 137.527C75.7716 136.942 75.0931 136.549 74.299 136.348C67.0896 135.606 59.8778 134.963 52.6632 134.42C49.7696 135.208 48.2701 137.1 48.1647 140.097C43.7998 140.617 39.6584 141.867 35.7402 143.846C32.9813 145.676 30.732 147.997 28.9924 150.808C24.623 158.191 21.124 165.974 18.4958 174.158C16.5655 180.429 16.2084 186.784 17.4247 193.223C18.5699 197.794 21.1761 201.257 25.2436 203.612C29.3467 205.566 33.631 206.995 38.0965 207.897C46.4441 209.51 54.8699 210.332 63.374 210.36C63.8213 205.437 64.1426 200.511 64.338 195.579C62.5977 194.78 60.884 193.923 59.1968 193.009C58.8393 198.013 58.4109 203.012 57.9115 208.004C57.5182 209.115 57.2682 209.043 57.1618 207.789C57.5913 202.808 58.0912 197.846 58.6613 192.901C54.1812 190.718 49.6826 188.576 45.1657 186.475C42.5079 184.62 41.4726 182.086 42.0595 178.87C43.7019 174.229 45.3441 169.588 46.9865 164.946C48.7527 157.424 46.3606 151.641 39.8103 147.595C39.8762 147.422 39.9834 147.279 40.1316 147.166C46.7991 151.095 49.3697 156.879 47.8434 164.518C46.1727 169.459 44.459 174.385 42.7022 179.299C42.3018 182.028 43.1942 184.206 45.3799 185.832C51.9752 188.88 58.5443 191.986 65.0878 195.151C65.2917 195.482 65.363 195.839 65.302 196.222C65.1083 196.374 65.037 196.588 65.0878 196.864C64.986 199.907 64.7718 202.942 64.4451 205.969C64.4511 206.198 64.5224 206.376 64.6593 206.504C64.5021 206.763 64.4308 207.048 64.4451 207.361C64.2448 208.537 64.1019 209.752 64.0167 211.003C59.4907 211.101 54.9922 210.887 50.5211 210.36C45.0821 210.022 39.7267 209.165 34.4549 207.789C34.2419 208.852 34.1706 209.923 34.2407 211.003C39.6305 211.217 45.0575 211.288 50.5211 211.217C50.4637 211.56 50.5352 211.845 50.7353 212.074C81.2257 212.144 111.716 212.074 142.206 211.86C143 211.669 143.786 211.455 144.562 211.217C175.051 211.217 205.543 211.217 236.032 211.217C237.264 211.315 238.228 211.887 238.924 212.931C240.181 215.653 239.505 217.761 236.889 219.25C195.974 219.321 155.058 219.394 114.143 219.464C113.954 219.616 113.812 219.794 113.715 220C113.501 220 113.286 220 113.072 220C113.137 219.861 113.209 219.717 113.286 219.571C96.6488 219.286 80.0115 219.286 63.374 219.571C63.2963 219.717 63.2249 219.861 63.1598 220C62.9456 220 62.7314 220 62.5172 220C62.5823 219.861 62.6536 219.717 62.7314 219.571C57.5917 219.321 52.4505 219.286 47.3078 219.464C47.6433 219.595 47.9291 219.773 48.1647 220C47.7363 220 47.3078 220 46.8794 220C46.6438 219.773 46.358 219.595 46.0225 219.464C39.7394 219.357 33.4556 219.321 27.1715 219.357C27.1715 219.571 27.1715 219.786 27.1715 220C27.0286 220 26.886 220 26.7431 220C26.7431 219.786 26.7431 219.571 26.7431 219.357C18.7453 219.394 10.748 219.357 2.75091 219.25C1.58986 218.867 0.768766 218.117 0.287422 217.001C-0.562586 214.023 0.472719 212.059 3.39355 211.11C13.4615 211.003 23.5296 210.966 33.598 211.003C33.6638 209.805 33.5922 208.627 33.3838 207.468C31.7997 207.012 30.2288 206.513 28.671 205.969C19.5079 202.217 15.2952 195.363 16.0323 185.404C16.1259 181.505 16.733 177.685 17.8531 173.943C20.1148 166.873 23.0425 160.089 26.636 153.593C28.2996 150.07 30.6204 147.036 33.598 144.489C37.7431 141.702 42.313 140.06 47.3078 139.562C48.1782 135.655 50.6059 133.692 54.5912 133.671C54.8054 133.671 55.0196 133.671 55.2338 133.671C61.4144 134.325 67.6266 134.967 73.8706 135.599C73.9419 135.599 74.0135 135.599 74.0848 135.599C75.238 135.802 76.2019 136.373 76.9767 137.312C77.5123 138.383 78.0478 139.455 78.5834 140.526C86.2469 142.354 93.5303 145.175 100.433 148.987C107.849 153.587 115.418 157.907 123.14 161.947C126.395 150.433 129.716 138.936 133.101 127.458C133.317 127.21 133.603 127.068 133.958 127.03C135.35 127.327 136.743 127.613 138.135 127.887Z" fill="#0672AE"/>
<path fill-rule="evenodd" clip-rule="evenodd" d="M149.917 138.169C149.776 138.362 149.635 138.576 149.489 138.812C144.283 137.772 139.071 136.773 133.851 135.813C133.815 136.096 133.886 136.346 134.065 136.563C139.248 137.634 144.425 138.527 149.596 139.24C149.699 139.443 149.735 139.658 149.703 139.883C148.9 147.442 148.184 155.01 147.561 162.59C139.564 162.59 131.566 162.59 123.569 162.59C126.962 150.946 130.389 139.307 133.851 127.673C139.435 128.854 145.005 130.104 150.56 131.421C150.211 133.648 149.997 135.897 149.917 138.169Z" fill="#FEFEFE"/>
<path fill-rule="evenodd" clip-rule="evenodd" d="M137.493 131.743C139.277 131.865 139.634 132.614 138.564 133.992C136.762 133.952 136.405 133.202 137.493 131.743Z" fill="#1274AF"/>
<path fill-rule="evenodd" clip-rule="evenodd" d="M122.283 162.376C114.309 162.487 106.312 162.665 98.2912 162.911C97.5997 163.246 97.1355 163.782 96.8988 164.518C96.1341 167.062 95.313 169.561 94.4353 172.016C94.4711 168.23 94.4353 164.446 94.3282 160.662C93.6785 155.509 91.6435 151.01 88.2231 147.167C88.1517 147.309 88.0802 147.452 88.0089 147.595C89.1502 149.347 90.2571 151.132 91.3292 152.95C92.6143 155.591 93.3998 158.376 93.6856 161.305C93.7927 165.66 93.8285 170.016 93.7927 174.372C90.8888 183.923 87.8898 193.42 84.7956 202.863C85.0257 201.763 84.6686 200.942 83.7245 200.399C80.7654 199.49 77.909 198.347 75.1559 196.972C71.9287 196.002 68.6442 195.752 65.302 196.222C65.363 195.839 65.2917 195.482 65.0877 195.151C58.5443 191.986 51.9752 188.88 45.3799 185.832C43.1942 184.206 42.3018 182.028 42.7022 179.299C44.459 174.386 46.1727 169.459 47.8434 164.518C49.3697 156.879 46.7991 151.095 40.1316 147.167C39.9834 147.279 39.8762 147.422 39.8103 147.595C46.3606 151.641 48.7527 157.425 46.9865 164.946C45.3441 169.588 43.7019 174.229 42.0595 178.87C41.4726 182.086 42.5079 184.621 45.1657 186.475C49.6826 188.576 54.1812 190.718 58.6613 192.902C58.0912 197.846 57.5913 202.808 57.1618 207.79C57.2682 209.043 57.5182 209.116 57.9115 208.004C58.4109 203.013 58.8393 198.013 59.1968 193.009C60.884 193.924 62.5977 194.781 64.338 195.579C64.1426 200.512 63.8213 205.438 63.374 210.36C54.8699 210.332 46.4441 209.51 38.0965 207.897C33.631 206.995 29.3467 205.566 25.2436 203.612C21.176 201.258 18.5699 197.794 17.4247 193.223C16.2084 186.784 16.5655 180.429 18.4958 174.158C21.124 165.974 24.623 158.191 28.9924 150.808C30.732 147.997 32.9813 145.677 35.7402 143.846C39.6584 141.867 43.7998 140.617 48.1647 140.097C48.2701 137.1 49.7696 135.208 52.6632 134.421C59.8778 134.963 67.0896 135.606 74.299 136.349C75.0931 136.549 75.7716 136.942 76.3341 137.527C76.8611 138.573 77.3253 139.644 77.7265 140.74C76.4772 144.722 73.7637 146.864 69.5863 147.167C69.5863 147.452 69.5863 147.738 69.5863 148.023C70.6646 147.815 71.7357 147.565 72.7995 147.274C75.5102 146.134 77.331 144.17 78.262 141.383C78.3822 141.271 78.5251 141.2 78.6905 141.168C86.3752 143.137 93.6944 146.029 100.648 149.844C107.795 154.132 115.007 158.309 122.283 162.376Z" fill="#FEFEFE"/>
<path fill-rule="evenodd" clip-rule="evenodd" d="M149.917 138.169C149.984 138.787 149.911 139.359 149.703 139.883C149.735 139.658 149.699 139.444 149.596 139.24C144.425 138.527 139.248 137.634 134.065 136.563C133.886 136.346 133.815 136.096 133.851 135.813C139.071 136.773 144.283 137.773 149.489 138.812C149.635 138.576 149.776 138.362 149.917 138.169Z" fill="#2E7DB3"/>
<path fill-rule="evenodd" clip-rule="evenodd" d="M94.4354 172.016C94.4317 172.88 94.2175 173.665 93.7927 174.372C93.8285 170.016 93.7927 165.66 93.6856 161.305C93.3999 158.376 92.6143 155.591 91.3293 152.951C90.2571 151.132 89.1503 149.347 88.0089 147.595C88.0802 147.452 88.1518 147.31 88.2231 147.167C91.6435 151.01 93.6786 155.509 94.3283 160.662C94.4354 164.446 94.4712 168.231 94.4354 172.016Z" fill="#1D77B0"/>
<path fill-rule="evenodd" clip-rule="evenodd" d="M122.283 162.375C122.686 162.556 123.114 162.627 123.569 162.59C131.566 162.59 139.563 162.59 147.561 162.59C147.775 162.59 147.989 162.59 148.203 162.59C151.132 162.554 154.06 162.59 156.986 162.697C158.272 163.196 158.987 164.125 159.128 165.482C155.011 179.476 150.763 193.436 146.383 207.361C146.061 208.578 145.596 209.719 144.99 210.788C144.776 210.859 144.632 211.003 144.562 211.217C143.786 211.455 143 211.669 142.205 211.859C111.716 212.074 81.2255 212.144 50.7351 212.074C50.7959 211.664 50.7246 211.307 50.5209 211.003C50.5209 210.788 50.5209 210.574 50.5209 210.36C54.992 210.887 59.4905 211.101 64.0165 211.003C64.1017 209.751 64.2446 208.537 64.4449 207.361C65.0152 207.147 65.5863 206.932 66.1586 206.718C67.9118 206.789 69.6255 206.716 71.2998 206.504C74.126 207.738 76.9823 208.916 79.8685 210.039C80.8102 210.283 81.5955 210.032 82.2248 209.289C82.6338 209.471 83.0622 209.542 83.5101 209.503C83.5101 209.289 83.5101 209.075 83.5101 208.86C83.1676 208.918 82.8821 208.845 82.6533 208.646C82.8675 208.646 83.0817 208.646 83.2959 208.646C83.2959 208.361 83.2959 208.074 83.2959 207.789C83.7501 207.596 83.8216 207.309 83.5101 206.932C83.8454 206.502 84.0596 206.003 84.1528 205.433C84.3529 205.204 84.4244 204.919 84.367 204.576C84.548 204.325 84.6907 204.041 84.7954 203.719C84.9893 203.406 84.9893 203.119 84.7954 202.862C87.8896 193.419 90.8886 183.923 93.7925 174.372C94.2173 173.665 94.4315 172.879 94.4352 172.015C95.3128 169.561 96.1339 167.061 96.8986 164.518C97.1353 163.781 97.5996 163.246 98.291 162.911C106.312 162.665 114.309 162.487 122.283 162.375Z" fill="#B3CADF"/>
<path fill-rule="evenodd" clip-rule="evenodd" d="M101.719 163.447C120.213 163.411 138.707 163.447 157.201 163.554C158.383 164.179 158.777 165.143 158.379 166.446C153.893 181.044 149.324 195.61 144.669 210.146C144.491 210.324 144.311 210.504 144.133 210.682C125.652 211.037 107.158 211.108 88.6515 210.896C87.5697 210.59 87.0699 209.874 87.152 208.754C91.5548 193.903 96.0891 179.086 100.755 164.304C101.054 163.968 101.375 163.682 101.719 163.447Z" fill="#FEFEFE"/>
<path fill-rule="evenodd" clip-rule="evenodd" d="M122.926 181.655C126.501 181.552 128.108 183.266 127.746 186.796C126.133 190.763 123.313 192.084 119.284 190.759C117.673 189.117 117.351 187.224 118.321 185.082C119.412 183.308 120.947 182.166 122.926 181.655Z" fill="#B3CAE0"/>
<path fill-rule="evenodd" clip-rule="evenodd" d="M84.7957 202.862C84.9896 203.119 84.9896 203.406 84.7957 203.719C81.4747 201.451 78.0473 199.345 74.5134 197.4C71.4113 196.606 68.2696 196.428 65.0879 196.864C65.0371 196.588 65.1084 196.373 65.3021 196.222C68.6443 195.752 71.9288 196.002 75.156 196.971C77.9091 198.347 80.7655 199.49 83.7246 200.399C84.6687 200.941 85.0258 201.762 84.7957 202.862Z" fill="#272A2B"/>
<path fill-rule="evenodd" clip-rule="evenodd" d="M84.7957 203.72C84.691 204.041 84.5483 204.326 84.3673 204.576C81.8179 202.48 79.0331 200.767 76.0129 199.435C76.0259 199.883 76.2401 200.205 76.6555 200.399C79.3825 201.761 81.8817 203.439 84.1531 205.433C84.0599 206.003 83.8457 206.502 83.5104 206.933C80.777 204.529 77.778 202.494 74.5133 200.828C74.204 200.66 73.9185 200.696 73.6565 200.935C75.6121 202.235 77.6113 203.484 79.6545 204.683C80.9724 205.609 82.1863 206.646 83.2962 207.79C83.2962 208.075 83.2962 208.362 83.2962 208.646C83.082 208.646 82.8678 208.646 82.6535 208.646C81.7963 208.327 81.0821 207.792 80.5114 207.04C77.8101 205.082 74.954 203.405 71.9427 202.006C71.9063 202.289 71.9777 202.539 72.157 202.756C75.4801 204.298 78.5147 206.26 81.2611 208.646C81.3646 208.85 81.4002 209.064 81.3683 209.289C80.56 209.341 79.7745 209.233 79.0119 208.968C76.0276 207.71 73.0286 206.498 70.0148 205.326C69.1579 205.183 68.3011 205.183 67.4442 205.326C66.5113 205.722 65.5831 206.114 64.6594 206.504C64.5225 206.376 64.4512 206.198 64.4452 205.969C64.7719 202.942 64.9861 199.908 65.0878 196.865C68.2696 196.428 71.4113 196.607 74.5133 197.4C78.0473 199.345 81.4747 201.451 84.7957 203.72Z" fill="#FBFBFC"/>
<path fill-rule="evenodd" clip-rule="evenodd" d="M84.3671 204.577C84.4245 204.919 84.353 205.204 84.1529 205.434C81.8816 203.439 79.3823 201.761 76.6553 200.4C76.24 200.205 76.0258 199.884 76.0127 199.436C79.0329 200.767 81.8177 202.481 84.3671 204.577Z" fill="#282B2D"/>
<path fill-rule="evenodd" clip-rule="evenodd" d="M80.297 200.078C80.3099 199.961 80.3812 199.89 80.5112 199.864C81.4685 200.361 82.4683 200.754 83.5102 201.042C84.0644 201.368 84.2429 201.833 84.0458 202.434C82.8209 201.601 81.5714 200.815 80.297 200.078Z" fill="#E8EAEC"/>
<path fill-rule="evenodd" clip-rule="evenodd" d="M83.5103 206.933C83.8218 207.31 83.7502 207.597 83.2961 207.79C82.1862 206.646 80.9723 205.609 79.6544 204.684C77.6112 203.484 75.6119 202.235 73.6564 200.935C73.9184 200.696 74.2039 200.661 74.5132 200.828C77.7779 202.494 80.7769 204.53 83.5103 206.933Z" fill="#272B2C"/>
<path fill-rule="evenodd" clip-rule="evenodd" d="M82.6535 208.646C82.8823 208.846 83.1679 208.918 83.5104 208.861C83.5104 209.075 83.5104 209.289 83.5104 209.503C83.0625 209.542 82.634 209.471 82.2251 209.289C81.5957 210.032 80.8104 210.283 79.8687 210.039C76.9826 208.916 74.1262 207.738 71.3001 206.504C70.4102 206.155 69.482 205.941 68.5153 205.862C67.6192 205.898 66.8337 206.183 66.1589 206.718C65.5865 206.933 65.0154 207.147 64.4452 207.361C64.4308 207.048 64.5021 206.763 64.6594 206.504C65.5831 206.114 66.5113 205.722 67.4442 205.326C68.301 205.182 69.1579 205.182 70.0148 205.326C73.0286 206.498 76.0276 207.71 79.0118 208.968C79.7745 209.233 80.56 209.34 81.3682 209.289C81.4001 209.064 81.3646 208.85 81.2611 208.646C78.5147 206.26 75.4801 204.298 72.1569 202.755C71.9776 202.539 71.9063 202.289 71.9427 202.006C74.954 203.404 77.8101 205.082 80.5114 207.04C81.082 207.792 81.7962 208.327 82.6535 208.646Z" fill="#292C2E"/>
<path fill-rule="evenodd" clip-rule="evenodd" d="M60.8033 205.005C62.0379 205.065 62.395 205.673 61.8744 206.825C60.0982 207.016 59.7413 206.41 60.8033 205.005Z" fill="#2379B1"/>
<path fill-rule="evenodd" clip-rule="evenodd" d="M71.3 206.504C69.6257 206.716 67.912 206.789 66.1588 206.718C66.8336 206.183 67.6191 205.898 68.5152 205.862C69.4819 205.941 70.4101 206.155 71.3 206.504Z" fill="#F5F6F7"/>
<path fill-rule="evenodd" clip-rule="evenodd" d="M50.5208 210.36C50.5208 210.574 50.5208 210.789 50.5208 211.003C45.0941 211.003 39.6671 211.003 34.2404 211.003C34.1703 209.923 34.2417 208.852 34.4546 207.79C39.7265 209.165 45.0819 210.022 50.5208 210.36Z" fill="#FEFEFE"/>
<path fill-rule="evenodd" clip-rule="evenodd" d="M34.2406 211.003C39.6673 211.003 45.0943 211.003 50.521 211.003C50.7247 211.307 50.7961 211.665 50.7352 212.074C50.5352 211.845 50.4636 211.56 50.521 211.217C45.0574 211.288 39.6305 211.217 34.2406 211.003Z" fill="#498EB8"/>
<path fill-rule="evenodd" clip-rule="evenodd" d="M144.99 210.789C175.338 210.932 205.684 211.074 236.032 211.217C205.543 211.217 175.051 211.217 144.562 211.217C144.632 211.003 144.776 210.86 144.99 210.789Z" fill="#116599"/>
<path fill-rule="evenodd" clip-rule="evenodd" d="M46.8793 220C40.3099 220 33.7407 220 27.1714 220C27.1714 219.786 27.1714 219.571 27.1714 219.357C33.4554 219.321 39.7392 219.357 46.0224 219.464C46.3579 219.595 46.6436 219.773 46.8793 220Z" fill="#215884"/>
<path fill-rule="evenodd" clip-rule="evenodd" d="M62.517 220C57.7329 220 52.9486 220 48.1645 220C47.9288 219.773 47.6431 219.595 47.3076 219.464C52.4503 219.286 57.5915 219.321 62.7312 219.571C62.6534 219.717 62.5821 219.861 62.517 220Z" fill="#215884"/>
<path fill-rule="evenodd" clip-rule="evenodd" d="M113.072 220C96.4347 220 79.7974 220 63.1599 220C63.225 219.861 63.2964 219.717 63.3741 219.571C80.0116 219.286 96.6489 219.286 113.286 219.571C113.209 219.717 113.137 219.861 113.072 220Z" fill="#215884"/>
</svg>
